<?xml version="1.0" encoding="utf-8"?>
<!-- Generator: Adobe Illustrator 18.1.1, SVG Export Plug-In . SVG Version: 6.00 Build 0)  -->
<svg version="1.1" id="Livello_1" xmlns="http://www.w3.org/2000/svg" xmlns:xlink="http://www.w3.org/1999/xlink" x="0px" y="0px"
	 viewBox="0 0 36 36" enable-background="new 0 0 36 36" xml:space="preserve">
<g>
	<path fill="#3EBCD3" d="M18.4,13.1c0-1.2-0.4-2.2-1.3-3.1c-0.7-0.8-1.6-1.2-2.6-1.3c-0.1,0-0.3,0-0.4,0H9.2C9,8.7,8.9,8.8,8.9,9
		c0,0,0,0,0,0.1c0,0,0,0,0,0.1v8v7.9c0,0,0,0,0,0c0,0,0,0,0,0c0,0.2,0.1,0.3,0.3,0.3h4.9c0.1,0,0.3,0,0.4,0c1-0.1,1.9-0.5,2.6-1.3
		c0.8-0.8,1.3-1.9,1.3-3.1c0-1.2-0.4-2.2-1.3-3.1c-0.4-0.4-0.9-0.7-1.4-1c0.5-0.2,1-0.5,1.4-1C18,15.3,18.4,14.3,18.4,13.1z
		 M17.8,21.2c0,1-0.4,1.9-1.1,2.6c-0.6,0.6-1.4,1-2.3,1.1c-0.1,0-0.2,0-0.3,0H9.5v-7.4h4.7c0.1,0,0.2,0,0.3,0
		c0.8,0.1,1.6,0.4,2.2,1.1C17.4,19.3,17.8,20.1,17.8,21.2z M14.4,16.8c-0.1,0-0.2,0-0.2,0c0,0,0,0,0,0c0,0,0,0,0,0H9.5V9.3h4.6
		c0.1,0,0.2,0,0.3,0c0.9,0.1,1.6,0.4,2.2,1.1c0.7,0.7,1.1,1.6,1.1,2.6c0,1-0.4,1.9-1.1,2.7C16.1,16.4,15.3,16.8,14.4,16.8z"/>
	<path fill="#3EBCD3" d="M21.6,13.5H28c0.2,0,0.3-0.1,0.3-0.3s-0.1-0.3-0.3-0.3h-6.4c-0.2,0-0.3,0.1-0.3,0.3S21.4,13.5,21.6,13.5z"
		/>
	<path fill="#3EBCD3" d="M30.8,5.3C27.3,1.8,23,0.1,18.1,0.1c-4.9,0-9.2,1.8-12.7,5.2C2,8.8,0.2,13.1,0.2,18c0,4.9,1.8,9.2,5.2,12.7
		c3.5,3.5,7.7,5.2,12.7,5.2c4.9,0,9.2-1.8,12.7-5.2C34.2,27.1,36,22.9,36,18C36,13.1,34.2,8.8,30.8,5.3z M30.3,30.2
		c-3.4,3.4-7.5,5.1-12.2,5.1c-4.7,0-8.8-1.7-12.2-5.1C2.5,26.8,0.8,22.7,0.8,18c0-4.7,1.7-8.8,5.1-12.2c3.4-3.4,7.5-5.1,12.2-5.1
		c4.7,0,8.8,1.7,12.2,5.1c3.4,3.4,5.1,7.5,5.1,12.2C35.4,22.7,33.7,26.8,30.3,30.2z"/>
	<path fill="#3EBCD3" d="M24.8,14.6c-1.5,0-2.8,0.5-3.9,1.6c-1.1,1.1-1.6,2.4-1.6,3.9c0,1.5,0.5,2.8,1.6,3.8
		c1.1,1.1,2.4,1.6,3.9,1.6c1.5,0,2.8-0.5,3.8-1.6c0.2-0.2,0.4-0.4,0.6-0.6c0.1-0.1,0.1-0.3-0.1-0.4c-0.1-0.1-0.3-0.1-0.4,0.1
		c-0.2,0.2-0.3,0.4-0.5,0.6c-0.9,1-2,1.4-3.4,1.4c-1.3,0-2.5-0.5-3.4-1.4c-0.9-0.9-1.4-2-1.4-3.4c0-0.1,0-0.3,0-0.4h9.9
		c0.1,0,0.2,0,0.2-0.1c0.1-0.1,0.1-0.2,0.1-0.2c-0.1-1.2-0.7-2.2-1.6-3.1C27.6,15.1,26.3,14.6,24.8,14.6z M20.1,19
		c0.2-0.9,0.6-1.7,1.3-2.4c1-0.9,2.1-1.4,3.4-1.4c1.3,0,2.5,0.5,3.4,1.4c0.7,0.7,1.1,1.5,1.3,2.4H20.1z"/>
</g>
</svg>
