<?xml version="1.0" encoding="utf-8"?>
<!-- Generator: Adobe Illustrator 18.1.1, SVG Export Plug-In . SVG Version: 6.00 Build 0)  -->
<svg version="1.1" id="Livello_1" xmlns="http://www.w3.org/2000/svg" xmlns:xlink="http://www.w3.org/1999/xlink" x="0px" y="0px"
	 viewBox="0 0 17 17" enable-background="new 0 0 17 17" xml:space="preserve">
<path fill="#CFD8DC" d="M14.6,9.4c0-0.3,0.1-0.6,0.1-0.9s0-0.6-0.1-0.9l1.7-1.3c0.2-0.1,0.2-0.3,0.1-0.6l-1.6-3
	c-0.1-0.3-0.3-0.3-0.5-0.3l-2,0.9c-0.4-0.3-1-0.7-1.5-0.9l-0.2-2.2c0-0.3-0.2-0.4-0.4-0.4H6.9C6.6,0,6.5,0.2,6.5,0.4L6.2,2.6
	C5.6,2.8,5.1,3.1,4.7,3.4l-2-0.9c-0.2-0.1-0.4,0-0.5,0.2l-1.6,3C0.4,6,0.4,6.2,0.7,6.3l1.7,1.4c0,0.3-0.1,0.6-0.1,0.9s0,0.6,0.1,0.9
	l-1.7,1.3c-0.2,0.1-0.2,0.3-0.1,0.6l1.6,3c0.1,0.3,0.3,0.3,0.5,0.3l2-0.9c0.4,0.3,1,0.7,1.5,0.9l0.2,2.2c0,0.3,0.2,0.4,0.4,0.4h3.3
	c0.2,0,0.4-0.2,0.4-0.4l0.2-2.2c0.6-0.3,1.1-0.5,1.5-0.9l2,0.9c0.2,0.1,0.4,0,0.5-0.2l1.6-3c0.1-0.2,0.1-0.4-0.1-0.6L14.6,9.4z
	 M8.5,11.9c-1.8,0-3.3-1.5-3.3-3.4s1.5-3.4,3.3-3.4s3.3,1.5,3.3,3.4S10.3,11.9,8.5,11.9z"/>
</svg>
