<?xml version="1.0" encoding="utf-8"?>
<!-- Generator: Adobe Illustrator 18.1.1, SVG Export Plug-In . SVG Version: 6.00 Build 0)  -->
<svg version="1.1" id="Livello_1" xmlns="http://www.w3.org/2000/svg" xmlns:xlink="http://www.w3.org/1999/xlink" x="0px" y="0px"
	 viewBox="0 0 36 36" enable-background="new 0 0 36 36" xml:space="preserve">
<g>
	<path fill="#E94581" d="M26.3,34.1c-0.1,0-0.2-0.1-0.3-0.2c-0.1-0.2,0-0.4,0.1-0.4c1.5-0.8,2.9-1.8,4.2-3.1c3.1-3.1,4.7-6.8,5-11
		l0-1.3c0-4.8-1.7-8.9-5.1-12.3c-0.3-0.3-0.6-0.6-0.9-0.9c-3.2-2.8-7-4.2-11.3-4.2c-3.2,0-6.2,0.8-8.7,2.3C9.2,3.1,9,3.1,8.9,2.9
		C8.8,2.8,8.8,2.6,9,2.5C11.7,0.9,14.7,0,18.1,0c4.5,0,8.4,1.5,11.7,4.4c0.3,0.3,0.6,0.6,1,0.9C34.2,8.8,36,13.1,36,18l0,1.3
		c-0.3,4.4-2,8.2-5.2,11.4c-1.3,1.3-2.8,2.4-4.3,3.2C26.4,34.1,26.3,34.1,26.3,34.1z"/>
</g>
<g>
	<path fill="#E94581" d="M26.3,34.1C26.3,34.1,26.3,34.1,26.3,34.1c-0.2,0-0.3-0.1-0.3-0.3c0.1-5.8-0.8-11-2.5-15.4
		c-0.8-1.9-1.7-3.7-2.8-5.4C17.8,8.8,13.9,5.5,9,3C8.9,3,8.8,2.8,8.9,2.6C9,2.4,9.1,2.4,9.3,2.5c5,2.5,9,5.9,11.8,10.1
		c1.1,1.7,2.1,3.5,2.9,5.5c1.8,4.5,2.7,9.7,2.6,15.7C26.6,33.9,26.5,34.1,26.3,34.1z"/>
</g>
<g>
	<path fill="#E94581" d="M6.3,15.9c-1.8,0-3.7-0.1-5.7-0.3c-0.2,0-0.3-0.2-0.3-0.3c0-0.2,0.2-0.3,0.3-0.3c8.3,0.8,15-0.1,20.1-2.5
		c3.7-1.8,6.6-4.5,8.5-8c0.1-0.2,0.3-0.2,0.4-0.1c0.2,0.1,0.2,0.3,0.1,0.4c-2.1,3.7-5,6.4-8.8,8.3C17.1,15,12.2,15.9,6.3,15.9z"/>
</g>
<g>
	<path fill="#E94581" d="M18.1,36.1c-4.7,0-8.9-1.7-12.3-4.9l-0.1-0.1c-0.1-0.1-0.2-0.2-0.3-0.3C1.9,27.3,0.1,23,0.1,18
		c0-1,0.1-1.9,0.2-2.8c0.5-3.8,2.2-7.1,5-10C6.5,4.2,7.7,3.2,9,2.5c0.2-0.1,0.3,0,0.4,0.1c0.1,0.2,0,0.3-0.1,0.4
		C8.1,3.8,6.9,4.7,5.8,5.8C3.1,8.5,1.5,11.7,1,15.4c-0.1,0.8-0.2,1.7-0.2,2.7c0,4.8,1.7,8.9,5.1,12.3c0.1,0.1,0.2,0.2,0.3,0.2
		l0.2,0.1c3.3,3.1,7.2,4.7,11.8,4.7c3,0,5.7-0.7,8.1-2c0.2-0.1,0.4,0,0.4,0.1c0.1,0.2,0,0.4-0.1,0.4C23.9,35.4,21.1,36.1,18.1,36.1z
		"/>
</g>
<g>
	<path fill="#E94581" d="M6,31.3c-0.1,0-0.1,0-0.2-0.1c-0.1-0.1-0.2-0.3-0.1-0.4c4.9-7.6,10.9-11.9,17.9-12.9
		c3.7-0.5,7.8-0.1,12.1,1.2c0.2,0.1,0.3,0.2,0.2,0.4c-0.1,0.2-0.2,0.3-0.4,0.2c-4.2-1.3-8.2-1.7-11.8-1.1c-6.8,1-12.7,5.2-17.5,12.6
		C6.2,31.2,6.1,31.3,6,31.3z"/>
</g>
</svg>
