<?xml version="1.0" encoding="UTF-8" standalone="no"?>
<svg width="30px" height="30px" viewBox="0 0 30 30" version="1.1" xmlns="http://www.w3.org/2000/svg" xmlns:xlink="http://www.w3.org/1999/xlink" xmlns:sketch="http://www.bohemiancoding.com/sketch/ns">
    <!-- Generator: Sketch 3.0.4 (8054) - http://www.bohemiancoding.com/sketch -->
    <title>Oval 1</title>
    <desc>Created with Sketch.</desc>
    <defs></defs>
    <g id="Page-1" stroke="none" stroke-width="1" fill="none" fill-rule="evenodd" sketch:type="MSPage">
        <g id="Facebook" sketch:type="MSArtboardGroup" fill="#000000">
            <path d="M15,30 C23.2842717,30 30,23.2842717 30,15 C30,6.71572834 23.2842717,0 15,0 C6.71572834,0 0,6.71572834 0,15 C0,23.2842717 6.71572834,30 15,30 Z M15,28.2 C22.2901591,28.2 28.2,22.2901591 28.2,15 C28.2,7.70984094 22.2901591,1.8 15,1.8 C7.70984094,1.8 1.8,7.70984094 1.8,15 C1.8,22.2901591 7.70984094,28.2 15,28.2 Z M16.0887118,21.6 L16.0887118,14.9992272 L18.0412469,14.9992272 L18.3,12.7245643 L16.0887118,12.7245643 L16.0920292,11.5860736 C16.0920292,10.9928065 16.1524325,10.6749205 17.0655323,10.6749205 L18.2861777,10.6749205 L18.2861777,8.4 L16.3333662,8.4 C13.9877254,8.4 13.1621207,9.50345622 13.1621207,11.3591226 L13.1621207,12.7248219 L11.7,12.7248219 L11.7,14.9994848 L13.1621207,14.9994848 L13.1621207,21.6 L16.0887118,21.6 Z" id="Oval-1" sketch:type="MSShapeGroup"></path>
        </g>
    </g>
</svg>